<?xml version="1.0" encoding="utf-8"?>
<!-- Generator: Adobe Illustrator 24.0.2, SVG Export Plug-In . SVG Version: 6.00 Build 0)  -->
<svg version="1.1" id="Layer_1" xmlns="http://www.w3.org/2000/svg" xmlns:xlink="http://www.w3.org/1999/xlink" x="0px" y="0px"
	 viewBox="0 0 89.7 89.7" style="enable-background:new 0 0 89.7 89.7;" xml:space="preserve">
<style type="text/css">
	.st0{fill:#20AE4A;}
	.st1{fill:#465A64;}
	.st2{fill:#FFFFFF;}
</style>
<path class="st0" d="M72,89.7c-18.2,0-36.3,0-54.5,0c-0.1-0.1-0.2-0.2-0.3-0.2c-4.8-0.8-8.7-4.8-8.6-10c0.2-8.2,0-16.4,0.1-24.6
	c0-2.9,0-5.9,0-8.8c0-1.9,0.8-3.5,2.1-5c1.6-1.9,3.8-3,6.3-3.6c1.7,0,3.4-0.1,5.1-0.1c2.5,0,5.1,0,7.6,0c0.3,0,0.7,0,1,0
	c9.3,0,18.6,0,27.9,0c0.3,0,0.7,0,1,0c4.3,0.1,8.5,0.1,12.8,0.2c0.1,0,0.1,0.1,0.2,0.1c4.8,0.9,8.5,4.9,8.4,9.8
	c-0.2,4.3,0,8.6,0,12.9c0,6.8,0,13.7,0,20.5c-0.1,3.9-3.2,7.4-7.4,8.5C73.1,89.4,72.6,89.6,72,89.7z M44.8,78.5c1.4,0,2.7,0,4.1,0
	c1.7,0,2.6-1,2.3-2.4c-0.5-3-1-6-1.5-9c-0.1-0.6,0-0.9,0.6-1.2c6.3-3.4,7-11,1.3-15.2c-4.8-3.5-11.8-2.6-15.5,1.9
	c-3.5,4.2-1.9,10.5,3.3,13.2c0.7,0.4,0.8,0.7,0.7,1.3c-0.5,3-1,5.9-1.5,8.9c-0.2,1.4,0.7,2.4,2.4,2.4C42.2,78.5,43.5,78.5,44.8,78.5
	z"/>
<path class="st1" d="M17.2,37.5c0-5-0.1-9.9,0.2-14.9c0.2-5.3,2.6-10,6.5-14.1C28.5,3.8,34.4,1,41.5,0.2c0.2,0,0.4-0.1,0.6-0.2
	c1.9,0,3.7,0,5.6,0c1.2,0.2,2.4,0.4,3.6,0.7c10.8,2.6,17.6,8.6,20.5,18.1c0.6,1.9,0.7,3.9,0.8,5.9c0.1,4.3,0,8.6,0,12.9
	c-4.3-0.1-8.5-0.1-12.8-0.2c0-4.7,0.1-9.4-0.1-14.1c-0.4-6.7-7-12-14.7-12c-7.8,0-14.4,5.2-14.8,12c-0.3,4.7-0.1,9.4-0.1,14.1
	c-2.5,0-5.1,0-7.6,0C20.6,37.4,18.9,37.5,17.2,37.5z"/>
<path class="st2" d="M44.8,78.5c-1.3,0-2.6,0-3.9,0c-1.7,0-2.6-1-2.4-2.4c0.5-3,1-5.9,1.5-8.9c0.1-0.6,0-1-0.7-1.3
	c-5.2-2.7-6.7-9-3.3-13.2c3.8-4.6,10.7-5.4,15.5-1.9c5.7,4.2,5.1,11.8-1.3,15.2c-0.6,0.3-0.7,0.6-0.6,1.2c0.5,3,1,6,1.5,9
	c0.2,1.5-0.7,2.4-2.3,2.4C47.5,78.5,46.2,78.5,44.8,78.5z"/>
</svg>
