<?xml version="1.0" encoding="UTF-8"?>
<svg version="1.1" xmlns="http://www.w3.org/2000/svg" width="512" height="512">
<path d="M0 0 C168.96 0 337.92 0 512 0 C512 168.96 512 337.92 512 512 C343.04 512 174.08 512 0 512 C0 343.04 0 174.08 0 0 Z " fill="#025DB9" transform="translate(0,0)"/>
<path d="M0 0 C5.25097595 3.14465227 9.16709155 7.36059288 11.51171875 13.0546875 C11.91796875 16.12109375 11.91796875 16.12109375 12.01171875 19.6171875 C12.06328125 20.75285156 12.11484375 21.88851562 12.16796875 23.05859375 C11.71505525 28.68086736 8.36976301 33.34147304 5.51171875 38.0546875 C5.05941895 38.8072583 4.60711914 39.5598291 4.14111328 40.33520508 C2.72953895 42.63517376 1.28289862 44.90930624 -0.17578125 47.1796875 C-0.74611084 48.07220215 -1.31644043 48.9647168 -1.90405273 49.88427734 C-9.64507029 61.93757571 -17.55822319 73.88021752 -25.45385742 85.83251953 C-34.13091264 98.96927751 -42.7425452 112.14725755 -51.27807617 125.37646484 C-57.82219112 135.51735261 -64.45713232 145.5956735 -71.11575317 155.66168213 C-82.7934995 173.28592773 -82.7934995 173.28592773 -94.05078125 191.1796875 C-94.53756348 191.97576416 -95.0243457 192.77184082 -95.52587891 193.59204102 C-96.21302979 194.71630493 -96.21302979 194.71630493 -96.9140625 195.86328125 C-114.88464993 225.24698133 -114.88464993 225.24698133 -126.83984375 228.7421875 C-135.22748222 229.8951275 -142.17962357 227.27923131 -148.91015625 222.2421875 C-151.52398784 219.92657831 -154.00181521 217.50690469 -156.48828125 215.0546875 C-158.48373324 213.16492017 -160.48958001 211.28663888 -162.49707031 209.40966797 C-163.86942427 208.1256589 -165.23875944 206.83841275 -166.60449219 205.54736328 C-169.90465028 202.43274632 -173.2388772 199.3787724 -176.66796875 196.40625 C-179.74021783 193.73834275 -182.64812818 190.97160147 -185.48828125 188.0546875 C-188.99666706 184.50892163 -192.57249547 181.14214845 -196.359375 177.8984375 C-199.90597169 174.82688954 -203.34824697 171.64064686 -206.80859375 168.47265625 C-209.12219062 166.38502292 -211.47722237 164.37057656 -213.86328125 162.3671875 C-218.18465631 158.61371388 -221.65176784 154.56422772 -223.48828125 149.0546875 C-223.6350386 146.59932408 -223.70928823 144.13926198 -223.73828125 141.6796875 C-223.77695313 139.71902344 -223.77695313 139.71902344 -223.81640625 137.71875 C-223.18907237 130.71352172 -218.59073504 126.48366305 -213.48828125 122.0546875 C-208.97180336 119.24714719 -203.64460606 119.44670293 -198.48828125 120.0546875 C-191.46941256 121.98893019 -186.66006883 126.13001605 -181.48828125 131.0546875 C-179.92961477 132.49820736 -178.36582978 133.93607653 -176.80224609 135.37426758 C-175.11078054 136.93199049 -173.42439621 138.49508308 -171.73828125 140.05859375 C-168.89067459 142.69262991 -166.00841796 145.28539638 -163.11328125 147.8671875 C-159.69238706 150.92943955 -156.42579388 154.09137868 -153.20703125 157.36328125 C-150.10430374 160.41664718 -146.80340494 163.23613297 -143.48828125 166.0546875 C-142.58078125 166.8384375 -141.67328125 167.6221875 -140.73828125 168.4296875 C-138.52204385 170.0303034 -137.10562716 170.49382766 -134.48828125 171.0546875 C-133.84721436 170.05953125 -133.20614746 169.064375 -132.5456543 168.0390625 C-125.77398113 157.54225617 -118.91972594 147.10201178 -112.03439331 136.67950439 C-103.92085722 124.39501059 -95.82007014 112.10652849 -87.92578125 99.6796875 C-82.57261524 91.25359019 -77.1030721 82.91277042 -71.55078125 74.6171875 C-60.45484307 58.03835075 -49.43255487 41.41347157 -38.86328125 24.4921875 C-18.97409527 -7.208369 -18.97409527 -7.208369 0 0 Z " fill="#FDFEFE" transform="translate(365.48828125,152.9453125)"/>
<path d="M0 0 C77.22 0 154.44 0 234 0 C234 0.33 234 0.66 234 1 C233.34628418 1.07516846 232.69256836 1.15033691 232.01904297 1.2277832 C185.15960453 6.67837552 140.88072414 22.36867967 103 51 C101.97519531 51.7734375 100.95039062 52.546875 99.89453125 53.34375 C94.84740889 57.28754794 90.08878793 61.53807185 85.36328125 65.859375 C83.29970787 67.72852907 81.19485387 69.52323362 79.0625 71.3125 C70.0731095 79.16009292 62.35050626 88.64481022 55 98 C54.55575684 98.56106445 54.11151367 99.12212891 53.65380859 99.70019531 C21.51655463 140.5139566 6.46587916 185.93769799 1 237 C0.67 237 0.34 237 0 237 C0 158.79 0 80.58 0 0 Z " fill="#FEFEFE" transform="translate(0,0)"/>
<path d="M0 0 C0.33 0 0.66 0 1 0 C1.17015625 1.28390625 1.3403125 2.5678125 1.515625 3.890625 C2.28792243 9.60235119 3.13791264 15.3012413 4 21 C4.11263184 21.78455566 4.22526367 22.56911133 4.34130859 23.37744141 C10.25124707 63.26290066 28.6828899 101.25217898 53 133 C53.44311523 133.5873291 53.88623047 134.1746582 54.34277344 134.77978516 C63.45163376 146.84619727 73.3105152 158.35563685 85 168 C85.91652344 168.804375 86.83304687 169.60875 87.77734375 170.4375 C106.09472424 186.46339505 126.91049248 199.80369768 149 210 C149.78181641 210.36335449 150.56363281 210.72670898 151.36914062 211.10107422 C175.03814108 221.98417345 200.07662627 229.09559341 226 232 C226 232.33 226 232.66 226 233 C151.42 233 76.84 233 0 233 C0 156.11 0 79.22 0 0 Z " fill="#FEFEFE" transform="translate(0,279)"/>
<path d="M0 0 C77.22 0 154.44 0 234 0 C234 74.91 234 149.82 234 227 C233.67 227 233.34 227 233 227 C232.90295776 226.11199707 232.90295776 226.11199707 232.80395508 225.20605469 C231.22529989 211.14044019 228.97446627 197.5923537 225 184 C224.75797852 183.16823242 224.51595703 182.33646484 224.26660156 181.47949219 C215.76867512 152.92339701 201.92152013 126.16478785 183.42773438 102.81298828 C182.02828336 101.03591522 180.65934676 99.23911746 179.296875 97.43359375 C168.63178682 83.39945357 156.65522903 71.12276417 143 60 C141.77065734 58.98068097 140.54149291 57.96114695 139.3125 56.94140625 C107.02360454 30.38826024 68.82841092 13.51023198 28 5 C27.14374023 4.8158252 26.28748047 4.63165039 25.40527344 4.44189453 C19.74900882 3.25646955 14.12268452 2.45837563 8.375 1.875 C7.56160156 1.78863281 6.74820312 1.70226562 5.91015625 1.61328125 C3.94053614 1.40473324 1.97032756 1.20175467 0 1 C0 0.67 0 0.34 0 0 Z " fill="#FEFEFE" transform="translate(278,0)"/>
<path d="M0 0 C0.33 0 0.66 0 1 0 C1 73.92 1 147.84 1 224 C-75.23 224 -151.46 224 -230 224 C-230 223.67 -230 223.34 -230 223 C-228.89527344 222.91363281 -227.79054688 222.82726562 -226.65234375 222.73828125 C-205.34139797 220.88434745 -183.72879916 216.40641243 -164 208 C-162.57473119 207.41541574 -161.14889503 206.8322138 -159.72265625 206.25 C-149.23898985 201.94294066 -139.01893056 197.30057541 -129 192 C-128.40912598 191.69126953 -127.81825195 191.38253906 -127.20947266 191.06445312 C-99.82756766 176.62963444 -73.71584288 153.57973521 -55 129 C-54.4740625 128.31276855 -53.948125 127.62553711 -53.40625 126.91748047 C-45.58080314 116.6487649 -38.2421766 106.30604891 -32 95 C-31.31623291 93.77966064 -31.31623291 93.77966064 -30.61865234 92.53466797 C-18.33468392 70.45590429 -9.65230882 47.61048453 -4 23 C-3.82887695 22.27264648 -3.65775391 21.54529297 -3.48144531 20.79589844 C-1.86270492 13.88371007 -0.60981041 7.0738007 0 0 Z " fill="#FEFEFE" transform="translate(511,288)"/>
<path d="M0 0 C-7.37850762 4.91900508 -15.34372928 5.44433329 -24 5 C-23.67 4.34 -23.34 3.68 -23 3 C-20.453125 2.18359375 -20.453125 2.18359375 -17.25 1.4375 C-16.20328125 1.18871094 -15.1565625 0.93992187 -14.078125 0.68359375 C-13.06234375 0.45800781 -12.0465625 0.23242188 -11 0 C-10.11441406 -0.20367187 -9.22882813 -0.40734375 -8.31640625 -0.6171875 C-5.36308703 -1.10525712 -2.91005487 -0.60908125 0 0 Z " fill="#6CA0D6" transform="translate(216,4)"/>
</svg>
