<?xml version="1.0" encoding="UTF-8"?>
<svg xmlns="http://www.w3.org/2000/svg"
     width="512" height="512"
     viewBox="0 0 512 512"
     version="1.2" baseProfile="tiny-ps">
  <title>Vevioz</title>
  <path fill="#188038" fill-rule="evenodd" d="M380.32 448.00 L135.09 447.99 L118.38 439.88 L108.53 430.07 L103.40 420.96 L100.63 406.90 L100.57 301.18 L101.58 296.90 L101.38 257.52 L102.99 251.10 L105.96 245.34 L113.80 235.70 L121.37 230.34 L137.50 223.28 L137.34 177.91 L138.72 153.95 L141.92 139.18 L149.24 122.70 L157.46 110.29 L172.73 94.06 L185.58 84.18 L199.70 76.27 L221.10 68.39 L245.49 64.21 L269.89 64.00 L290.38 68.34 L317.83 78.82 L334.25 89.32 L351.21 105.10 L364.48 125.23 L372.00 144.53 L374.49 156.51 L375.21 224.14 L390.16 230.38 L400.01 237.91 L407.80 248.96 L411.43 262.66 L410.70 418.88 L407.71 426.13 L399.41 436.86 L391.87 442.51 L382.03 446.17 Z M318.08 224.14 L319.76 219.86 L319.80 168.07 L318.14 155.23 L310.18 138.54 L296.43 125.28 L287.44 119.82 L273.32 114.74 L262.62 112.98 L250.63 113.03 L239.38 115.00 L225.38 119.92 L216.47 125.27 L203.41 138.11 L195.85 152.34 L193.90 162.08 L193.02 170.64 L193.83 223.71 Z"/>
</svg>
