<?xml version="1.0" encoding="utf-8"?>
<svg version="1.2" baseProfile="tiny-ps" id="Layer_1" xmlns="http://www.w3.org/2000/svg" xmlns:xlink="http://www.w3.org/1999/xlink"
	 viewBox="0 0 80 80" xml:space="preserve">
<title>Vimeo</title>
<rect fill="#FFFFFF" width="80" height="80"/>
<path fill-rule="evenodd" d="M61.2,30c-0.2,4.2-3.1,9.9-8.7,17.1c-5.8,7.6-10.7,11.3-14.7,11.3c-2.5,0-4.6-2.3-6.3-6.9
	c-1.1-4.2-2.3-8.4-3.4-12.7C26.8,34.3,25.5,32,24,32c-0.3,0-1.4,0.7-3.3,2l-2-2.6c2.1-1.9,4.2-3.7,6.2-5.6c2.8-2.4,4.9-3.7,6.3-3.8
	c3.3-0.3,5.4,2,6.1,6.8c0.8,5.3,1.4,8.5,1.7,9.8c1,4.4,2,6.5,3.2,6.5c0.9,0,2.2-1.4,4-4.2c1.8-2.8,2.7-5,2.9-6.5
	c0.3-2.4-0.7-3.7-2.9-3.7c-1,0-2.1,0.2-3.2,0.7c2.1-6.9,6.1-10.2,12-10C59.4,21.6,61.5,24.5,61.2,30"/>
</svg>
